<svg version="1.2" xmlns="http://www.w3.org/2000/svg" viewBox="0 0 785 165" width="785" height="165">
	<title>polygon-svg</title>
	<style>
		.s0 { fill: #f0b90b } 
	</style>
	<filter id="f0">
		<feFlood flood-color="#ffffff" flood-opacity="1" />
		<feBlend mode="normal" in2="SourceGraphic"/>
		<feComposite in2="SourceAlpha" operator="in" />
	</filter>
	<g id="Layer_x0020_1" filter="url(#f0)">
		<g id="_2085448168176">
			<path id="Layer" fill-rule="evenodd" class="s0" d="m122.8 47.5l26.8-15.5 26.8 15.5-10.1 5.5-16.7-9.7-17.2 9.7zm53.2 19.2h-0.4v11.8l-16.8 9.6v19.3l-9.6 5.8-9.7-5.8v-19.7l-16.7-9.7v-11.3l9.6-5.4 17.2 9.6 16.7-9.6 9.7 5.4zm-9.7 36.4v-10.8l9.7-5.9v11.3zm16.7-20.9l10.1-6.3v31l-26.8 15.5v-11.3l16.7-9.7zm0-31l9.6 5.9v11.3l-9.6 5.9v-11.3l-9.6-5.9zm-34 69.9l9.7-5.8v11.3l-9.7 5.9-9.6-5.9v-11.3zm-33.1-39v19.7l16.8 9.6v11.4l-26.8-15.5v-31l9.6 5.8zm33.5-30.9l9.6 5.8-10 5.9-9.7-5.9c0 0 10.1-5.8 10.1-5.8zm-33.9 23l-9.7-5.9v-11.3l9.7-5.8 10 5.8-10 5.9zm7.1 11.7l9.6 5.9v11.3l-9.6-5.5z"/>
			<path id="Layer" fill-rule="evenodd" class="s0" d="m249.6 110.8h-26.8v-56.2h26c11.3 0 18.5 5.9 18.5 14.7 0 6.3-3.4 10-7.6 12.1 6.3 2.5 10.5 6.3 10.5 13.9 0 10-8.4 15-20.6 15.5zm-2.9-45.7h-12.1v12.1h11.3c5.4 0 8.8-1.6 8.8-5.8 0-4.2-2.5-6.3-8-6.3zm2.1 22.6h-14.2v12.2h14.7c5.4 0 8.7-2.1 8.7-6.3 0-3.8-2.9-6.3-9.2-5.9z"/>
			<path id="Layer" class="s0" d="m330.9 110.3v-55.7h-12.1v34.4l-26.4-34.4h-11.3v56.2h12.1v-35.7l27.3 35.7h10.4z"/>
			<path id="Layer" fill-rule="evenodd" class="s0" d="m371.9 110.8h-26.8v-56.2h26c11.3 0 18.4 5.9 18.4 14.7 0 6.3-3.3 10-7.5 12.1 6.3 2.5 10.5 6.3 10.5 13.9 0 10-8.4 15-20.6 15.5zm-2.5-45.7h-12.1v12.1h11.3c5.5 0 8.8-1.6 8.8-5.8 0-4.2-2.9-6.3-8-6.3zm1.7 22.6h-14.2v12.2h14.6c5.5 0 8.8-2.1 8.8-6.3 0-3.8-2.9-6.3-9.2-5.9z"/>
			<path id="Layer" class="s0" d="m466.6 100.7l-6.3-6.3c-4.6 4.6-9.2 7.2-15.9 7.2-10.9 0-18.4-8.8-18.4-20.2 0-10.9 8-19.6 18.4-19.6 6.3 0 11.3 2.9 15.5 7.1l6.3-7.5c-5.5-5.1-11.7-8.8-21.8-8.8-16.7 0-28.9 13-28.9 28.9 0 16.3 12.2 28.9 28.5 28.9 10.5-0.1 16.7-3.8 22.6-9.7z"/>
			<path id="Layer" class="s0" d="m514.4 86v23.5h9.6v-56.1h-9.6v23.4h-26.8v-23.4h-9.7v56.1h9.7v-23.5z"/>
			<path id="Layer" fill-rule="evenodd" class="s0" d="m593.1 109.9h-10.5l-5.8-13.4h-26.4l-5.9 13.4h-10l24.7-56.5h9.2zm-29.3-44.9l-9.6 22.2h19.2z"/>
			<path id="Layer" class="s0" d="m604 53.4h9.6v56.1h-9.6z"/>
			<path id="Layer" class="s0" d="m668.5 92.3l-30.2-38.5h-8.8v56.1h9.7v-40.2l31 39.8h8.3v-56.1h-9.6v38.9z"/>
		</g>
	</g>
</svg>