<svg xmlns="http://www.w3.org/2000/svg" version="1.2" viewBox="0 14.8 595.4 106.4">
	<title>coinbase-logo-full-text-svg</title>
	<style>
		.s0 { fill: #ffffff } 
	</style>
	<g id="Layer_x0020_1">
		<path id="Layer" fill-rule="evenodd" class="s0" d="m158.9 82.8c0 21.8-16.7 38.4-38.8 38.4-22 0-38.5-16.3-38.5-38.3 0-22 16.9-38.4 38.5-38.4 22.4 0 38.9 16.5 38.8 38.3zm-17.2 0.1c0-12.8-9-22.5-21.5-22.5-12.3 0-21.2 9.5-21.2 22.5 0 12.8 9 22.4 21.3 22.4 12.3 0 21.3-9.6 21.4-22.4zm22-37h27.9v73.8h-17.2v-58.5h-10.7zm-146.4 37.1c0 12.8 8.7 22.4 21.2 22.4 9.1 0 16.2-5.7 18.8-14h18c-3.3 17.8-18.2 29.8-36.8 29.8-22 0-38.5-16.3-38.5-38.3 0-22 16.9-38.4 38.6-38.5 19 0 33.6 12 36.9 29.7h-18.2c-2.7-8.2-9.9-13.8-18.9-13.8-12.5 0-21.1 9.6-21.1 22.7zm496.2 14.8c0 14.7-12.4 23.3-31.2 23.3-20.6 0-31.9-10.1-33.5-24.5h16.9c0.9 6.3 6.6 10.4 16.8 10.4 8.3 0 14.3-2.4 14.3-8.3 0-4.6-3.4-7-9.6-7.9l-12.6-1.9c-15.9-2.3-23.8-9.5-23.8-22.1 0-13.1 12-22.4 30.2-22.4 17.6 0 29 8.7 30.9 23.5h-16.6c-1.2-5.8-6.5-9.4-14.8-9.4-7.6 0-13.2 2.6-13.2 7.7 0 4.7 4.3 6.7 10.3 7.6l12.6 1.9c14.1 2.2 23.2 9 23.3 22.1zm-319.5-71.5c0 6.2-4.7 10.8-11 10.8-6.3 0-11-4.5-11-10.8 0-6.2 4.7-10.8 11-10.8 6.3 0 11 4.6 11 10.8zm241 78.1h8.5v15.3h-10c-7.6 0-13-4.7-13.6-12-3.9 8.2-11.6 13.3-23.9 13.3-15.7 0-25.6-8.5-25.6-21.8 0-17.1 16.3-21.7 29.5-23.1 9.7-1 17.6-2.6 17.6-8.7 0-4.7-4.3-8.6-13-8.6-9.8 0-14.3 4.8-15.2 10.7h-17c2.1-15.1 13-25 32.5-25 20.7 0 30.4 10.7 30.4 26.7zm-16.6-21.8c-2.2 3.3-6.5 5-14.2 5.7-8.1 0.8-16.8 2.8-16.8 10.1 0 5.7 5.5 8.4 11.9 8.4 10.4 0 19-7.2 19-17.1 0 0 0-6.8 0.1-7.1zm0 0q0 0 0 0 0 0 0 0zm-55.1 0.2c0 22-15.6 38.3-36.2 38.3-9.7 0-17.9-4.1-23.6-11.1v9.7h-16.9v-104.9h17.2v40.4c5.7-6.7 13.7-10.7 23.3-10.7 20.3 0 36.2 16.3 36.2 38.3zm-17.4 0.1c0-12.9-8.7-22.5-21.2-22.5-12.3 0-21.5 9.7-21.5 22.5 0 12.8 9 22.4 21.3 22.4 12.3 0 21.3-9.6 21.4-22.4zm-72.1-6.7v43.5h-17.2v-42.3c0-10.1-6.1-17.1-16-17.1-10.6 0-17.8 8-17.8 19.3v40.1h-17.2v-73.8h17v9.6c4.3-6.4 11.6-11 22.8-11 18.8 0 28.4 13.1 28.4 31.7zm321.5 4.2l0.1 6.7h-56.9c1.9 11.9 10.2 18.8 21.2 18.8 8.4 0 14.7-3.7 17.3-10.3h17.9c-3.6 14.9-17.6 25.5-35.5 25.5-21.2 0-38.5-15.3-38.5-38.3 0-21.8 16.1-38.4 38.2-38.4 20.7 0 36.2 14.9 36.2 36zm-17.7-5.7c-1.7-9.7-9.2-15.3-18.9-15.3-8.8 0-16.6 5-19.3 15.3z"/>
	</g>
</svg>