<svg version="1.2" xmlns="http://www.w3.org/2000/svg" viewBox="0 0 44 24" width="44" height="24">
	<title>gunjs-black-svg</title>
	<style>
		.s0 { fill: #000000 } 
	</style>
	<g>
		<path fill-rule="evenodd" class="s0" d="m18.1 0.3h-0.1q0 0 0 0c0 0 0 0.1 0 0.1v0.1 0.1l-0.1 0.1v0.1 0.3l-0.1 0.1v0.1l-0.1 0.4-0.1 0.2-0.1 0.1-0.1 0.3v0.2l-0.1 0.4-0.1 0.5-0.2 0.4-0.1 0.4-0.1 0.3-0.1 0.4-0.1 0.4-0.2 0.6-0.1 0.4-0.1 0.5-3.7 12.4-0.2 0.8-0.2 0.6-0.2 0.5-0.1 0.5-0.1 0.5-0.2 0.7-0.1 0.2-0.1 0.3v0.1l-0.1 0.1v0.1 0.1 0.1h-0.1q0 0.1 0 0.1c0 0-0.1 0.1-0.7 0.1 0 0-0.6 0-0.6 0h-0.7-0.3-5.4-0.3c0 0-2.9 0-2.9 0q-0.1 0-0.1 0-0.1 0-0.1-0.1c0 0 0.1-0.3 0.2-0.8l0.1-0.2 0.1-0.2q0-0.1 0-0.1l0.1-0.3q0 0 0-0.1l0.1-0.3 0.1-0.2v-0.3l0.2-0.5 0.1-0.3 0.1-0.5 0.1-0.3 0.1-0.6 0.2-0.5 0.2-0.5 0.1-0.4 0.1-0.5 0.1-0.3 0.2-0.6 0.1-0.3 0.1-0.3 0.1-0.5 0.1-0.4 0.1-0.3 0.1-0.3 0.1-0.3v-0.3l0.1-0.2 0.1-0.2v-0.3q0.1 0 0.1-0.1v-0.1c0.2-0.5 0.3-0.8 0.3-0.8 0-0.1 0.4-0.1 0.9-0.1 0 0 0.2 0 0.2 0h0.1q0 0 0.1 0c0 0 0.1 0 0.2 0 0 0 0.1 0 0.2 0 0 0 0.3 0 0.4 0 0 0 0.2 0 0.3 0 0 0 0.3 0 0.4 0 0 0 0.2 0 0.3 0h0.2q0.1 0 0.1 0h0.1c0.7 0 1.1 0 1.1 0.1q0 0 0 0.1v0.2h-0.1v0.2 0.1 0.1l-0.1 0.1v0.1 0.1l-0.1 0.3-0.2 0.6-0.1 0.3-0.1 0.5-0.2 0.6v0.2l-0.1 0.3-0.1 0.2-0.1 0.4-0.1 0.3-0.1 0.2-0.1 0.5v0.2l-0.1 0.3-0.1 0.2-0.1 0.2v0.2l-0.1 0.2v0.1l-0.1 0.3v0.2l-0.1 0.2v0.1 0.2h-0.1v0.2c0 0.1 0 0.2 0 0.2 0 0.1 0.2 0.1 0.5 0.1 0.1 0 0.2 0 0.3 0h0.1c0.3 0 0.6 0 0.7-0.1 0 0 0.1-0.4 0.3-1.1l0.1-0.2q0 0 0-0.1l0.1-0.2v-0.2l0.1-0.2 0.1-0.3v-0.2l0.1-0.3 0.1-0.3 0.1-0.3 0.1-0.2v-0.3l0.3-0.6v-0.3l0.2-0.6 0.1-0.3 0.1-0.3 0.1-0.2v-0.3l0.1-0.3 0.1-0.3 0.1-0.2q0-0.1 0-0.2l0.1-0.5q0.1 0 0.1-0.1v-0.2c0.3-0.9 0.5-1.5 0.4-1.5q0-0.1 0-0.1h-0.9-0.2-4.8l-0.1-0.1c0 0-0.3 0-0.3 0q0 0 0-0.1l0.1-0.1v-0.2-0.1l0.1-0.1 0.1-0.3v-0.1l0.1-0.4 0.1-0.2 0.1-0.2v-0.2l0.1-0.4 0.1-0.4 0.2-0.7 0.2-0.4 0.1-0.4 0.1-0.3 0.1-0.4 1.5-5.1 5.8-0.1h3.2l0.3 0.1h1.8q0 0 0 0.2zm3.7 15.4c-0.3 1.4-1.2 2.7-2.8 2.8h-5.1l0.5-1.5h4.8c1.5 0 2.3-0.1 2.6-1.3zm-2.4-4.4c1.8 0.1 1.9 0.4 1.8 2.3v-0.2c0-0.8-0.1-0.9-1.1-0.9 0 0-0.5 0-0.5 0-0.1 0-0.3 0-0.3 0h-1c-1.2 0.9-1.6 2.7-0.5 3.6h-0.1v-0.1l-0.2-0.1h-0.1-0.1c-0.4-0.3-1.1-0.6-1.4-1.3-0.2-0.8-0.1-2 0.6-2.7 0.4-0.4 0.8-0.5 1.4-0.6 0 0 0.1 0 0.2 0zm2.4 4.2q0 0.1 0 0.2 0-0.1 0-0.2zm20.8-15.5q0 0 0 0.1h-0.1q0 0.1 0 0.1v0.1 0.1 0.1l-0.1 0.1v0.1 0.1l-0.1 0.1v0.2 0.1l-0.1 0.3-0.1 0.2v0.2l-0.1 0.2-0.1 0.4-0.1 0.3-0.1 0.2v0.3l-0.1 0.3-0.1 0.4-0.1 0.3-0.1 0.4-0.2 0.4-1.5 5.1h-4.4c0 0-0.1 0-0.1 0q-0.1 0-0.1 0 0 0 0-0.1v-0.2l0.1-0.1v-0.1-0.1-0.1l0.1-0.1v-0.1-0.1l0.1-0.2v-0.2-0.1l0.2-0.4 0.1-0.4 0.2-0.6 0.1-0.6 0.1-0.4 0.1-0.3 0.1-0.3 0.1-0.3 0.1-0.3 0.1-0.4 0.1-0.1v-0.1-0.1l0.1-0.1v-0.1-0.1-0.1h0.1c0 0 0-0.2 0-0.2q0-0.1-0.1-0.1h-0.1-0.7-0.9l-1 3.4-0.1 0.4-0.1 0.4-0.1 0.2-0.1 0.4-0.1 0.3v0.2l-0.1 0.3-0.1 0.4-0.1 0.1v0.1 0.1h-0.1v0.1c0 0.1-0.5 0.1-1.3 0.1 0 0-0.1 0-0.2 0 0 0-0.2 0-0.3 0 0 0-0.2 0-0.2 0 0 0-0.4 0-0.4 0-0.1 0-0.3 0-0.4 0-0.1 0-0.3 0-0.5 0 0 0-0.1 0-0.2 0h-0.1c-0.5 0-0.9 0-1 0q0 0 0-0.1h0.1v-0.1-0.1-0.1l0.1-0.1v-0.1-0.2l0.1-0.1v-0.2l0.1-0.2 0.1-0.3 0.1-0.5 0.1-0.3 0.2-0.7 0.1-0.4 0.1-0.2 0.1-0.4 0.1-0.5 0.2-0.4 1.5-5.2c0 0 11 0 11 0 0 0 0.1 0 0.1 0zm-12.2 0q0 0 0 0.1 0 0.1 0 0.1h-0.1v0.3 0.1l-0.1 0.2v0.1l-0.1 0.3v0.1l-0.1 0.2-0.1 0.2v0.2l-0.2 0.7-0.1 0.3-0.1 0.4-0.1 0.3-0.3 0.9-0.1 0.5-0.1 0.2-1.5 5h-10.7-0.1c-0.1 0-0.3 0-0.3 0q0 0 0.1-0.1v-0.1-0.1-0.1l0.1-0.2v-0.2l0.1-0.1v-0.2l0.1-0.3 0.2-0.6v-0.1l0.1-0.4 0.1-0.2 0.1-0.4 0.1-0.2v-0.3l0.2-0.4 0.1-0.5 0.1-0.5 1.6-5.2h2.6 0.2 0.2 0.2c0 0 1.4 0 1.4 0q0 0.1 0 0.2 0 0 0 0v0.1 0.2h-0.1v0.2 0.1l-0.1 0.1v0.1l-0.1 0.5v0.1l-0.1 0.2v0.1l-0.1 0.2v0.1l-0.1 0.2-0.1 0.4-0.1 0.1v0.3l-0.1 0.3-0.1 0.3-0.1 0.3-0.1 0.2-0.1 0.4-0.2 0.6-0.1 0.4-0.1 0.3v0.1 0.1 0.2h-0.1q0 0 0 0c0 0.1 0.1 0.1 0.1 0.1h1.7l1-3.3 0.1-0.5 0.1-0.4 0.1-0.3 0.2-0.6 0.1-0.2v-0.2l0.1-0.2 0.1-0.3v-0.1l0.1-0.1v-0.2q0 0 0 0c0-0.1 0.5-0.1 1.1-0.1h0.2q0 0 0 0c0.1 0 0.2 0 0.3 0 0.1 0 0.2 0 0.2 0 0 0 0.2 0 0.3 0 0 0 0.3 0 0.4 0 0 0 0.2 0 0.2 0 0.1 0 0.4 0 0.5 0 0 0 0.2 0 0.2 0h0.1c0.6 0 1.1 0 1.1 0zm13.6 4.3c0 0.4-0.5 2.3-0.8 2.5-0.2 0.3-0.6 0.3-0.9 0-0.3-0.2-0.3-0.4-0.1-1.2 0-0.1 0-0.1 0-0.1l0.1-0.1v-0.1-0.1-0.1l0.1-0.1v-0.1-0.1-0.1h0.1v-0.2-0.1h0.1v-0.1q0 0 0-0.1l0.1-0.1q0-0.1 0.1-0.1v-0.1c0.4-0.4 1.1-0.2 1.2 0.4zm-33.1-0.6v0.1h-0.2q0 0 0 0h-0.1q0 0 0 0.2h-0.1v0.1 0.1l-0.1 0.1v0.1 0.1l-0.1 0.1v0.1 0.1l-0.1 0.2v0.2l-0.1 0.1v0.1l-0.1 0.1v0.1 0.1 0.1h-0.1v0.1 0.1c0 0.1 0 0.1 0 0.1l-0.1 0.1q0 0.2 0 0.2 0 0.1 0.1 0.1c0 0 0.1 0 0.1 0 0 0 1.3 0 1.3 0h0.1c0 0 0.1 0 0.1 0q0-0.1 0.1-0.3c0 0 0 0 0-0.1v-0.1h0.1v-0.2-0.1l0.1-0.1v-0.1-0.1l0.1-0.1v-0.1l0.1-0.2v-0.1-0.1-0.1l0.1-0.1v-0.1-0.1-0.1h0.1q0 0 0-0.1v-0.1q0.1-0.2 0.1-0.2v-0.1q0 0-0.1 0 0 0-0.1 0v-0.1z"/>
	</g>
</svg>