<svg version="1.2" xmlns="http://www.w3.org/2000/svg" viewBox="0 0 44 24" width="44" height="24">
	<title>gunjs-white-svg</title>
	<style>
		.s0 { fill: #ffffff } 
	</style>
	<g>
		<path fill-rule="evenodd" class="s0" d="m18.1 0.1q0-0.1 0 0.2h-0.1q0 0 0 0c0 0.1 0 0.1 0 0.1v0.1 0.1l-0.1 0.1-0.1 0.3v0.2 0.1l-0.3 1-0.1 0.3-0.1 0.3-0.1 0.4-0.2 0.5-0.1 0.4-0.1 0.3-0.1 0.4-0.1 0.4-0.2 0.6-0.1 0.4-0.1 0.5-3.7 12.4-0.2 0.8-0.3 1.1-0.2 0.5-0.2 0.5v0.4l-0.2 0.3v0.2l-0.1 0.3-0.1 0.2v0.1 0.1 0.1h-0.1q0 0.1 0 0.1c0 0-0.1 0.1-0.7 0.1 0 0-0.6 0-0.6 0h-0.6-0.1-5.7-0.3-3q-0.1 0-0.1-0.1c0 0 0.1-0.3 0.2-0.8l0.1-0.2 0.1-0.2q0-0.1 0-0.1l0.1-0.3q0 0 0-0.1l0.1-0.3 0.1-0.5 0.3-0.8 0.1-0.5 0.1-0.3 0.2-0.6 0.1-0.5 0.2-0.5 0.1-0.4 0.1-0.5 0.1-0.4 0.2-0.5 0.1-0.4 0.1-0.3 0.1-0.5 0.1-0.3 0.1-0.3 0.2-0.6v-0.3l0.1-0.2 0.1-0.2 0.1-0.3q0 0 0-0.1v-0.2c0.2-0.4 0.3-0.7 0.3-0.7 0-0.1 0.3-0.1 0.9-0.1 0.1 0 0.3 0 0.4 0h0.1q0 0 0.1 0c0 0 0.2 0 0.2 0 0.1 0 0.4 0 0.4 0 0.1 0 0.2 0 0.3 0 0 0 0.3 0 0.4 0 0 0 0.2 0 0.2 0h0.3q0.1 0 0.1 0h0.1c0.7 0 1.1 0 1.1 0.1q0 0 0 0v0.2l-0.1 0.1v0.1 0.1 0.1l-0.1 0.1v0.2 0.1l-0.1 0.3-0.2 0.6-0.1 0.3-0.1 0.4-0.2 0.6v0.2l-0.1 0.3-0.1 0.3-0.1 0.3-0.1 0.3-0.1 0.3-0.1 0.5-0.1 0.2-0.1 0.5-0.1 0.2v0.1l-0.1 0.2v0.2l-0.1 0.2v0.2 0.1l-0.1 0.1v0.1 0.1 0.2l-0.1 0.1v0.1c0 0.1 0 0.2 0 0.2 0 0 0.2 0 0.5 0.1q0.2 0 0.3 0h0.1c0.3 0 0.6-0.1 0.6-0.1 0.1-0.1 0.2-0.5 0.4-1.1 0 0 0.1-0.3 0.1-0.3l0.1-0.2 0.2-0.7v-0.3l0.2-0.5 0.1-0.3 0.1-0.3 0.3-1.1 0.1-0.3 0.3-0.9 0.1-0.3 0.1-0.5 0.1-0.3 0.1-0.3q0 0 0-0.1l0.1-0.5q0.1-0.1 0.1-0.1v-0.2c0.3-1 0.5-1.6 0.4-1.6q0 0 0 0c-0.1 0-0.1 0-0.1 0h-1l-0.1-0.1h-4.8-0.1c0 0-0.2 0-0.2 0q0 0 0-0.1v-0.1h0.1v-0.2-0.1l0.1-0.1 0.1-0.3v-0.1l0.1-0.4 0.1-0.3v-0.1l0.1-0.3 0.1-0.3 0.1-0.4 0.2-0.7 0.3-0.8 0.1-0.3 0.1-0.5 1.5-5.1h5.8 3.5 0.2c0.1 0 1.6 0.1 1.6 0.1zm3.7 15.6c-0.3 1.4-1.2 2.7-2.8 2.8h-5.1l0.5-1.5h4.8c1.5 0 2.3-0.1 2.6-1.3zm-2.4-4.4c1.8 0.1 1.9 0.4 1.8 2.3v-0.2c0-0.8-0.1-0.9-1.1-0.9 0 0-0.8 0-0.8 0h-1c-1.2 0.9-1.6 2.7-0.5 3.6h-0.1v-0.1l-0.2-0.1h-0.1-0.1c-0.5-0.2-1.1-0.6-1.4-1.3-0.2-0.8-0.1-2 0.6-2.7 0.4-0.4 0.8-0.5 1.4-0.6zm2.5 4.2q-0.1 0.1-0.1 0.2 0-0.1 0.1-0.2zm20.7-15.5q0 0 0 0.1 0 0.1 0 0.1v0.1l-0.1 0.1v0.1 0.1l-0.1 0.3-0.1 0.6-0.1 0.2-0.1 0.2-0.1 0.4-0.1 0.2v0.2l-0.1 0.3-0.1 0.3-0.1 0.3-0.1 0.4-0.1 0.3-0.1 0.4-0.1 0.4-1.5 5.1h-4.5q-0.1 0-0.1 0-0.1 0-0.1 0 0 0 0-0.1v-0.1h0.1v-0.1-0.1-0.1l0.1-0.1v-0.1-0.1-0.1l0.1-0.3 0.1-0.3 0.1-0.3v-0.2l0.1-0.1 0.1-0.4 0.1-0.3v-0.1l0.1-0.2 0.1-0.4 0.1-0.4 0.1-0.3 0.1-0.3v-0.3l0.1-0.3 0.1-0.4 0.1-0.1v-0.1-0.1l0.1-0.2 0.1-0.1v-0.1-0.1q0 0 0-0.1 0 0 0 0c0-0.1 0-0.1-0.1-0.1h-0.1-0.5-0.2-0.8l-1 3.4-0.1 0.4-0.2 0.4-0.1 0.6-0.1 0.3-0.1 0.2-0.1 0.3v0.2l-0.1 0.1-0.1 0.2v0.1 0.1 0.1q-0.1 0-0.1 0.1c0 0-0.5 0-1.2 0 0 0-0.2 0-0.2 0-0.1 0-0.3 0-0.3 0-0.1 0-0.2 0-0.3 0 0 0-0.4 0-0.4 0-0.1 0-0.3 0-0.3 0-0.1 0-0.4 0-0.5 0-0.1 0-0.2 0-0.2 0h-0.1c-0.6 0-1 0-1 0q0 0 0-0.1v-0.2l0.1-0.1v-0.2l0.1-0.2v-0.1l0.1-0.2v-0.2l0.1-0.3 0.1-0.5 0.1-0.3 0.1-0.3 0.3-1 0.1-0.4 0.2-0.5 0.1-0.5 1.5-5.1h6.4 0.5 0.8 0.4c0 0 2.9 0 2.9 0q0.1 0 0.1 0zm-12.2 0q0 0 0 0.1 0 0.1 0 0.1l-0.1 0.2v0.2l-0.1 0.3v0.2l-0.1 0.4-0.1 0.2-0.1 0.1-0.1 0.4-0.1 0.3-0.2 0.8v0.2l-0.2 0.5-0.1 0.5-0.1 0.4-0.1 0.2-1.5 5.1h-10.9-0.1c0 0-0.1 0-0.1 0q0 0 0-0.1v-0.2l0.1-0.1v-0.1-0.1l0.1-0.3 0.1-0.2 0.1-0.3 0.1-0.6 0.1-0.1 0.1-0.4v-0.2l0.1-0.4 0.1-0.2 0.1-0.3 0.1-0.4 0.2-0.5 0.1-0.5 1.6-5.2h2.4 0.2 0.5 0.2c0 0 1.3 0 1.3 0q0 0.1 0 0.2 0 0 0 0v0.1h-0.1v0.2 0.2h-0.1v0.1 0.1l-0.1 0.3v0.1l-0.1 0.3v0.1l-0.2 0.4-0.1 0.5-0.1 0.2v0.1l-0.1 0.3-0.2 0.6-0.1 0.3v0.2l-0.1 0.4-0.2 0.6-0.1 0.4-0.1 0.3v0.2l-0.1 0.1v0.1c0 0.1 0 0.1 0.1 0.1q0.1 0 0.1 0h1.5l1-3.3 0.1-0.5 0.2-0.4 0.1-0.3 0.2-0.6 0.1-0.4 0.2-0.6v-0.1-0.1-0.1h0.1c0-0.1 0.5-0.1 1.1-0.1h0.1q0 0 0 0c0.1 0 0.3 0 0.3 0 0.1 0 0.2 0 0.3 0 0 0 0.1 0 0.2 0 0.1 0 0.4 0 0.4 0 0.1 0 0.2 0 0.3 0 0.1 0 0.4 0 0.5 0h0.3c0.6 0 1 0 1 0zm13.6 4.3c0.1 0.4-0.5 2.3-0.7 2.5-0.3 0.2-0.7 0.3-0.9 0.1v-0.1c-0.3-0.2-0.4-0.4-0.1-1.3 0 0 0 0 0 0v-0.1-0.1l0.1-0.1v-0.1-0.1-0.1l0.1-0.1v-0.1-0.1-0.1h0.1v-0.1-0.2h0.1v-0.1q0.1-0.1 0.1-0.1v-0.1c0.4-0.4 1.1-0.1 1.2 0.4zm-33-0.6v0.1h-0.3q0 0 0 0c0 0-0.1 0.1-0.1 0.1v0.1l-0.1 0.3-0.1 0.2v0.1l-0.1 0.2-0.1 0.2-0.1 0.4-0.1 0.2v0.2 0.1l-0.1 0.1c0 0.1 0 0.1 0 0.1v0.1q-0.1 0.2-0.1 0.2c0.1 0.1 0.1 0.1 0.1 0.1h1.5 0.1q0 0 0-0.1c0 0 0.1-0.1 0.1-0.2l0.1-0.1q0-0.1 0-0.1v-0.1l0.1-0.2v-0.1-0.1l0.1-0.1v-0.1-0.2h0.1v-0.1-0.1-0.1h0.1v-0.1l0.1-0.3v-0.1q0-0.1 0-0.1v-0.1h0.1q0-0.2 0-0.2v-0.1q0 0-0.1 0h-0.1v-0.1z"/>
	</g>
</svg>