<svg version="1.2" xmlns="http://www.w3.org/2000/svg" viewBox="0 0 447 48" width="447" height="48">
	<title>trust-wallet-white-svg</title>
	<style>
		.s0 { fill: #ffffff } 
	</style>
	<filter id="f0">
		<feFlood flood-color="#000000" flood-opacity="1" />
		<feBlend mode="normal" in2="SourceGraphic"/>
		<feComposite in2="SourceAlpha" operator="in" />
	</filter>
	<g id="Folder 1" filter="url(#f0)">
		<path class="s0" d="m42.7 2h14.9v8.3c4.9-7.5 10.5-8.3 18.7-8.3v14.7h-3.7c-9.9 0-14.6 4.6-14.6 13.7v15.6h-15.3z"/>
		<path class="s0" d="m126 46h-15.3v-4.2c-3.3 3.8-7.9 5.5-13.5 5.5-10.7 0-16.7-6.3-16.7-17.8v-27.5h15.3v24.1c0 5.4 2.7 8.6 7.3 8.6 4.5 0 7.6-3.1 7.6-8.4v-24.3h15.3v44z"/>
		<path class="s0" d="m129.8 32.4h14.3c0.6 3.2 2.8 4.5 8.1 4.5 4.3 0 6.9-1 6.9-2.8 0-1.4-1.3-2.4-4.8-3.1l-11.5-2.6c-7.8-1.8-11.7-6.2-11.7-13.3 0-9.4 7-14.3 20.4-14.3 13.4 0 20 4.8 21.1 14.9h-14.2c-0.2-2.7-3-4.3-7.6-4.3-3.6 0-6 1.1-6 2.9 0 1.5 1.6 2.7 4.7 3.4l12.1 3c8 1.9 11.8 5.9 11.8 12.5 0 9-7.9 14.4-21.3 14.4-13.4 0-22.3-5.8-22.3-15.2z"/>
		<path class="s0" d="m214.1 15.7v-13.7h-37.7v13.7h11.2v30.3h15.3v-30.3z"/>
		<path class="s0" d="m38.4 15.7v-13.7h-37.7v13.7h11.3v30.3h15.2v-30.3z"/>
		<path fill-rule="evenodd" class="s0" d="m235.9 45.1l-11.7-42.9h5.3l8.9 35h0.5l9.1-35h5.9l9.1 35h0.4l9-35h5.3l-11.8 42.9h-5.3l-9.5-34.1h-0.3l-9.5 34.1zm44.9 0h-5.5l15.8-42.9h5.3l15.8 42.9h-5.5l-4.3-12.1h-17.3zm5.9-16.8h14.1l-6.9-19.3h-0.3zm30.4 16.7v-42.9h5.2v38.3h19.9v4.6zm31.4 0v-42.9h5.2v38.3h20v4.6zm31.4 0v-42.9h25.9v4.6h-20.7v14.5h19.4v4.6h-19.4v14.6h21v4.6zm31.2-38.3v-4.6h32.2v4.6h-13.5v38.3h-5.2v-38.3z"/>
	</g>
</svg>