<svg width="447" height="48" viewBox="0 0 447 48" fill="none" xmlns="http://www.w3.org/2000/svg">
<path d="M42.707 2.00977H57.6015V10.3033C62.4814 2.84971 68.0971 2.00977 76.3178 2.00977V16.6662H72.574C62.7232 16.6662 58.0071 21.2743 58.0071 30.4026V45.9817H42.707V2.00977Z" fill="white"/>
<path d="M126.013 45.9817H110.715V41.7897C107.375 45.6431 102.822 47.3179 97.2092 47.3179C86.5499 47.3179 80.5234 41.0351 80.5234 29.48V2.00977H95.8209V26.0504C95.8209 31.4907 98.5065 34.6721 103.061 34.6721C107.616 34.6721 110.713 31.5708 110.713 26.2985V2.00977H126.01V45.9817H126.013Z" fill="white"/>
<path d="M129.751 32.4063H144.079C144.731 35.5877 146.928 36.9265 152.214 36.9265C156.529 36.9265 159.051 35.9237 159.051 34.081C159.051 32.6544 157.829 31.7317 154.335 30.9797L142.779 28.3823C135.047 26.6274 131.139 22.1873 131.139 15.0646C131.139 5.68041 138.055 0.824219 151.483 0.824219C164.911 0.824219 171.502 5.55636 172.646 15.6952H158.406C158.165 13.0177 155.393 11.3791 150.838 11.3791C147.178 11.3791 144.822 12.5499 144.822 14.3125C144.822 15.8192 146.364 16.99 149.463 17.7498L161.586 20.6832C169.56 22.606 173.389 26.63 173.389 33.1609C173.389 42.2091 165.494 47.5693 152.073 47.5693C138.653 47.5693 129.774 41.7904 129.774 32.4063H129.759H129.751Z" fill="white"/>
<path d="M214.126 15.6867V2.00977H176.366V15.6945H187.634V45.9817H202.853V15.6867H214.126Z" fill="white"/>
<path d="M38.4479 15.6867V2.00977H0.69043V15.6945H11.9581V45.9817H27.1802V15.6867H38.4479Z" fill="white"/>
<path d="M235.933 45.1484L224.2 2.23935H229.48L238.448 37.1868H238.867L248.002 2.23935H253.868L263.003 37.1868H263.422L272.389 2.23935H277.669L265.936 45.1484H260.573L251.102 10.9553H250.767L241.297 45.1484H235.933ZM280.791 45.1484H275.344L291.1 2.23935H296.463L312.219 45.1484H306.772L302.455 32.9964H285.107L280.791 45.1484ZM286.742 28.3871H300.821L293.949 9.0277H293.614L286.742 28.3871ZM317.133 45.1484V2.23935H322.329V40.5391H342.275V45.1484H317.133ZM348.55 45.1484V2.23935H353.746V40.5391H373.692V45.1484H348.55ZM379.968 45.1484V2.23935H405.864V6.84872H385.164V21.3473H404.523V25.9567H385.164V40.5391H406.199V45.1484H379.968ZM411.113 6.84872V2.23935H443.295V6.84872H429.802V45.1484H424.606V6.84872H411.113Z" fill="white"/>
</svg>
